<?xml version="1.0" encoding="UTF-8"?><svg id="a" xmlns="http://www.w3.org/2000/svg" viewBox="0 0 975.24 386.36"><defs><style>.b{fill:#fff;}</style></defs><g><path class="b" d="M554.43,0c-.05,0-.1,0-.16,0-73.92,0-133.85,58.35-133.85,130.32s59.93,130.32,133.85,130.32c.05,0,.1,0,.16,0V0Z"/><path class="b" d="M728.05,0c-.05,0-.1,0-.16,0-73.92,0-133.85,58.35-133.85,130.32s59.93,130.32,133.85,130.32c.05,0,.1,0,.16,0V0Z"/><path class="b" d="M246.81,260.64c.05,0,.1,0,.16,0,73.92,0,133.85-58.35,133.85-130.32S320.89,0,246.96,0c-.05,0-.1,0-.16,0V260.64Z"/></g><g><path class="b" d="M21.5,363.08l-21.5-.31v-2.17c8.59-.23,8.66-2.01,8.66-16.94v-18.79c0-14.15-.85-14.85-8.66-15.16v-2.17l21.5-.46c23.9-.54,37.05,7.97,37.05,27.69s-13.15,28.62-37.05,28.31Zm4.56-2.63c11.52,0,22.66-8.51,22.66-25.52s-10.05-25.44-25.06-25.29l-6.65,.08v35.11c0,13.77,1.7,15.62,9.05,15.62Z"/><path class="b" d="M83.37,364.31c-11.6,0-19.41-8.04-19.41-19.95,0-12.92,8.2-21.66,20.19-21.66,11.06,0,17.71,8.12,16.71,18.87h-27.76v.62c0,11.37,4.8,18.33,12.76,18.33,7.19,0,12.14-4.25,12.99-11.14l2.63,.31c-.85,8.51-8.43,14.62-18.1,14.62Zm-10.21-25.06h18.72c.77-8.28-2.63-14.23-8.12-14.23-6.11,0-9.9,5.18-10.6,14.23Z"/><path class="b" d="M109.2,364.31v-17.79h1.78l.46,1.86c2.09,8.28,7.89,13.23,15.47,13.23,5.34,0,9.05-1.86,9.05-6.65,0-13.15-26.3-2.94-26.3-19.41,0-7.27,5.34-12.84,14.77-12.84,6.57,0,9.51,2.71,10.83,2.71,1.01,0,1.62-.46,2.09-1.93l.23-.77h1.62v16.01h-1.62l-.46-1.55c-2.71-9.05-8.04-11.91-12.92-11.91s-8.97,2.63-8.97,6.42c0,12.61,26.68,1.78,26.68,19.34,0,9.12-7.5,13.3-15,13.3-6.34,0-11.06-2.94-12.99-2.94-1.32,0-2.17,.85-2.55,2.17l-.23,.77h-1.93Z"/><path class="b" d="M146.64,362.77v-2.17c7.81-.23,8.74-2.01,8.74-16.94s.77-16.47-8.82-16.78v-2.09l16.32-.77v19.64c0,14.93,.93,16.71,8.35,16.94v2.17h-24.59Zm11.37-48.72c-3.33,0-5.8-2.4-5.8-5.72s2.47-5.88,5.8-5.88,5.8,2.47,5.8,5.88-2.47,5.72-5.8,5.72Z"/><path class="b" d="M192.57,386.36c-11.91,0-19.41-4.64-19.41-11.06,0-4.56,3.09-8.28,7.35-10.44-2.71-1.16-4.49-3.17-4.49-6.73,0-4.95,3.4-8.12,6.81-10.05-3.71-2.63-5.88-6.57-5.88-11.14,0-7.97,6.73-14.23,16.63-14.23,2.78,0,5.26,.46,7.42,1.32,1.47-4.64,5.8-7.81,10.52-7.81,3.94,0,5.96,2.47,5.96,4.87,0,2.55-1.39,4.56-3.94,4.56-4.33,0-3.4-6.03-5.57-6.03-1.55,0-3.87,2.47-4.87,5.41,4.56,2.55,7.27,6.88,7.27,11.91,0,7.96-6.81,14.31-16.78,14.31-3.17,0-6.03-.62-8.43-1.78-2.71,1.32-4.25,3.4-4.25,5.34,0,2.55,2.71,3.79,6.19,3.79,8.12,0,28.54-5.1,28.54,11.37,0,9.98-10.05,16.4-23.05,16.4Zm1.39-3.17c8.89,0,16.47-4.02,16.47-10.21,0-5.1-5.26-7.27-9.74-7.27-4.25,0-10.67,.85-15.93,.23-3.4,1.86-5.1,5.18-5.1,8.58,0,4.49,4.49,8.66,14.31,8.66Zm-.31-34.49c4.64,0,8.35-4.18,8.35-11.75s-3.71-11.68-8.35-11.68-8.35,4.1-8.35,11.68,3.79,11.75,8.35,11.75Z"/><path class="b" d="M219.1,362.77v-2.17c7.81-.23,8.74-2.01,8.74-16.94s.77-16.47-8.82-16.78v-2.09l16.32-.77v9.28c2.86-6.5,9.51-10.6,16.01-10.6,7.97,0,12.92,3.95,13.23,9.82,.23,4.64-.31,6.5-.31,13.3,0,13.23,.62,14.54,8.35,14.77v2.17h-24.21v-2.17c7.42-.23,8.28-2.01,8.28-16.94,0-9.74-.31-16.16-9.05-16.16-5.72,0-11.14,4.8-12.3,12.14v4.02c0,14.93,.93,16.71,8.35,16.94v2.17h-24.59Z"/><path class="b" d="M305.8,364.31c-17.09,0-28.93-11.75-28.93-28.69s12.61-29.78,30.01-29.78c9.9,0,14.08,3.94,16.63,3.94,.7,0,1.16-.15,1.62-.46,.62-.39,1.01-1.16,1.47-2.79h2.09v21.42h-2.09c-2.32-12.91-9.2-19.8-19.57-19.8-12.3,0-20.34,10.75-20.34,27.3,0,13.53,8.97,23.36,21.35,23.36,10.75,0,18.64-5.8,21.42-15.78l2.32,.85c-3.17,12.99-12.68,20.42-25.99,20.42Z"/><path class="b" d="M372.31,363.93c-.85-2.32-1.24-5.18-1.39-10.67-2.86,6.81-9.67,11.06-15.7,11.06-7.58,0-12.53-4.02-12.84-10.13-.23-4.64,.31-6.42,.31-13.23,0-13.23-.85-13.77-8.58-14v-2.17l16.86-.77c-.46,6.11-.62,12.53-.7,19.1-.16,9.9,.31,16.4,8.66,16.4,5.1,0,10.75-4.87,11.91-12.37v-3.4c0-16.47-.54-16.47-8.58-16.78v-2.17l16.78-.77c-.46,6.11-.7,12.53-.7,19.1,0,12.22,.39,17.25,9.67,17.25v2.09l-15.7,1.47Z"/><path class="b" d="M390.02,362.77v-2.17c7.81-.23,8.74-2.01,8.74-16.94v-20.88c0-14.93,.77-16.63-8.82-16.94v-2.17l17.79-.7c-.62,3.02-1.47,14.69-1.47,19.8v20.88c0,14.93,.93,16.71,8.74,16.94v2.17h-24.98Z"/><path class="b" d="M434.1,364.31c-7.5,0-11.45-3.33-11.45-13.23,0-4.79,.46-9.51,.46-16.47s-.7-6.88-10.05-6.88v-2.24c11.91,0,14.54-8.51,14.85-20.11h2.94v19.33c4.33,0,9.28-.31,13.38-.62v3.94c-4.1-.23-9.05-.23-13.38-.23v19.26c0,9.82,2.4,12.61,6.03,12.61,5.1,0,6.26-4.64,6.57-8.43v-.08h2.55v.08c-.62,8.28-3.94,13.07-11.91,13.07Z"/><path class="b" d="M486.31,363.93c-.85-2.32-1.24-5.18-1.39-10.67-2.86,6.81-9.67,11.06-15.7,11.06-7.58,0-12.53-4.02-12.84-10.13-.23-4.64,.31-6.42,.31-13.23,0-13.23-.85-13.77-8.58-14v-2.17l16.86-.77c-.46,6.11-.62,12.53-.7,19.1-.16,9.9,.31,16.4,8.66,16.4,5.1,0,10.75-4.87,11.91-12.37v-3.4c0-16.47-.54-16.47-8.59-16.78v-2.17l16.78-.77c-.46,6.11-.7,12.53-.7,19.1,0,12.22,.39,17.25,9.67,17.25v2.09l-15.7,1.47Z"/><path class="b" d="M504.02,362.77v-2.17c7.81-.23,8.74-2.01,8.74-16.94v-5.41c0-9.74-.54-11.14-8.82-11.37v-2.09l16.32-.77v8.97c2.47-6.11,7.81-10.29,12.76-10.29s7.97,3.63,7.97,6.57c0,2.78-1.55,5.26-4.64,5.26-5.34,0-4.79-6.42-8.2-6.42-2.71,0-6.34,3.56-7.89,11.68v3.87c0,14.93,.23,16.71,10.6,16.94v2.17h-26.84Z"/><path class="b" d="M563.49,364.31c-11.6,0-19.41-8.04-19.41-19.95,0-12.92,8.2-21.66,20.19-21.66,11.06,0,17.71,8.12,16.7,18.87h-27.76v.62c0,11.37,4.79,18.33,12.76,18.33,7.19,0,12.14-4.25,12.99-11.14l2.63,.31c-.85,8.51-8.43,14.62-18.1,14.62Zm-10.21-25.06h18.72c.77-8.28-2.63-14.23-8.12-14.23-6.11,0-9.9,5.18-10.6,14.23Z"/><path class="b" d="M617.09,364.31c-17.09,0-28.93-11.75-28.93-28.69s12.61-29.78,30.01-29.78c9.9,0,14.08,3.94,16.63,3.94,.7,0,1.16-.15,1.62-.46,.62-.39,1-1.16,1.47-2.79h2.09v21.42h-2.09c-2.32-12.91-9.2-19.8-19.57-19.8-12.3,0-20.34,10.75-20.34,27.3,0,13.53,8.97,23.36,21.35,23.36,10.75,0,18.64-5.8,21.42-15.78l2.32,.85c-3.17,12.99-12.68,20.42-25.99,20.42Z"/><path class="b" d="M668.83,364.31c-11.83,0-20.34-8.82-20.34-21.04s8.74-20.57,20.34-20.57,20.49,8.89,20.49,20.57-8.66,21.04-20.49,21.04Zm0-2.32c6.96,0,11.37-7.19,11.37-18.48s-4.41-18.49-11.37-18.49-11.21,7.12-11.21,18.49,4.33,18.48,11.21,18.48Z"/><path class="b" d="M694.42,362.77v-2.17c7.81-.23,8.74-2.01,8.74-16.94s.77-16.47-8.82-16.78v-2.09l16.32-.77v9.28c2.86-6.5,9.36-10.6,15.24-10.6,7.96,0,12.91,3.95,13.23,9.67,3.02-5.96,9.36-9.67,15.54-9.67,7.19,0,12.14,3.95,12.45,9.82,.23,4.64-.31,6.5-.31,13.3,0,13.23,.62,14.54,8.35,14.77v2.17h-23.82v-2.17c7.04-.23,7.89-2.01,7.89-16.94,0-9.74-.31-16.16-8.28-16.16-5.18,0-10.13,3.95-11.83,10.13-.16,2.09-.31,4.33-.31,8.2,0,13.23,.54,14.54,7.97,14.77v2.17h-23.43v-2.17c7.12-.23,7.89-2.01,7.89-16.94,0-9.74-.31-16.16-9.05-16.16-4.95,0-10.36,4.8-11.52,12.14v4.02c0,14.93,.85,16.71,7.96,16.94v2.17h-24.21Z"/><path class="b" d="M774.01,384.42v-2.32c10.6-.23,11.6-1.93,11.6-16.16v-22.2c0-14.77,.85-16.55-10.36-16.86v-2.09l17.86-.77v7.04c3.09-5.03,8.66-8.35,15.16-8.35,10.05,0,17.17,8.66,17.17,20.88,0,11.52-8.97,20.73-20.26,20.73-5.41,0-9.67-2.71-12.07-6.03v7.58c0,14.31,.31,16.01,13.46,16.24v2.32h-32.56Zm30.39-23.2c6.88,0,11.91-7.5,11.91-17.63,0-11.21-4.02-17.56-11.06-17.56s-12.45,6.57-12.45,18.17c0,12.53,4.49,17.02,11.6,17.02Z"/><path class="b" d="M864.42,364.31c-4.95,0-7.97-2.47-8.58-6.65-2.86,4.02-7.27,6.65-13.07,6.65-6.96,0-11.68-4.49-11.68-9.82,0-4.25,2.55-7.5,4.87-8.66,5.88-2.94,11.83-2.09,19.8-7.66v-2.24c0-6.03-2.55-9.13-8.89-9.13-5.18,0-9.59,3.87-8.04,9.67l-2.55,.85c-3.17-7.42,3.48-14.62,13.69-14.62,8.43,0,14.15,4.18,14.15,12.07,0,10.9-3.25,24.9,2.94,24.9,3.48,0,4.25-2.47,4.41-9.12h2.32c-.15,9.9-3.33,13.77-9.36,13.77Zm-17.87-4.56c6.03,0,9.2-4.72,9.2-9.2v-9.67c-5.72,4.72-16.32,4.49-16.32,12.3,0,4.1,2.47,6.57,7.11,6.57Z"/><path class="b" d="M875.63,362.77v-2.17c7.81-.23,8.74-2.01,8.74-16.94s.77-16.47-8.82-16.78v-2.09l16.32-.77v9.28c2.86-6.5,9.51-10.6,16.01-10.6,7.96,0,12.91,3.95,13.23,9.82,.23,4.64-.31,6.5-.31,13.3,0,13.23,.62,14.54,8.35,14.77v2.17h-24.21v-2.17c7.42-.23,8.28-2.01,8.28-16.94,0-9.74-.31-16.16-9.05-16.16-5.72,0-11.14,4.8-12.3,12.14v4.02c0,14.93,.93,16.71,8.35,16.94v2.17h-24.59Z"/><path class="b" d="M933.64,385.58c-5.18,0-9.9-3.4-9.9-8.43,0-3.02,1.78-5.72,5.34-5.72s5.03,2.55,5.03,4.79c0,1.7-.85,3.25-.85,4.64,0,1.47,1,1.93,2.09,1.93,3.48,0,10.21-6.34,14.23-19.02l-8.12-19.72c-6.26-15.08-6.81-17.32-16.24-17.63v-2.17h25.45v2.17c-4.33,.16-6.11,.7-6.11,3.09s1.55,6.5,4.64,13.53l4.64,10.6,3.79-9.98c2.78-7.35,4.56-11.6,4.56-14.08s-2.01-3.02-6.34-3.17v-2.17h19.41v2.17c-8.97,.31-8.82,2.32-14.69,17.48l-8.28,21.35c-4.41,11.37-10.21,20.34-18.64,20.34Z"/></g></svg>